HIERARCHY
ROOT Hips
{
  OFFSET 74.0196 97.4445 -31.1285
  CHANNELS 6 Xposition Yposition Zposition Zrotation Xrotation Yrotation
  JOINT RightUpLeg
  {
    OFFSET -8.9458 -8.66707 0.101652
    CHANNELS 3 Zrotation Xrotation Yrotation
    JOINT RightLeg
    {
      OFFSET -2.94875e-013 -44.4227 1.3727
      CHANNELS 3 Zrotation Xrotation Yrotation
      JOINT RightFoot
      {
        OFFSET 0.253549 -42.0924 -1.46059
        CHANNELS 3 Zrotation Xrotation Yrotation
        JOINT RightToes
        {
          OFFSET 0.04 -4.41509 8.4991
          CHANNELS 3 Zrotation Xrotation Yrotation
          End Site
          {
            OFFSET -0.08 -0.137448 9.77979
          }
        }
      }
    }
  }
  JOINT Spine
  {
    OFFSET -5.68434e-014 11.8905 -6.39488e-014
    CHANNELS 3 Zrotation Xrotation Yrotation
    JOINT Spine1
    {
      OFFSET 5.68434e-014 25.6574 0.127663
      CHANNELS 3 Zrotation Xrotation Yrotation
      JOINT HEad
      {
        OFFSET 4.26326e-014 8.73416 0.011341
        CHANNELS 3 Zrotation Xrotation Yrotation
        End Site
        {
          OFFSET -0.29 12.7742 2.51395
        }
      }
      JOINT LeftShoulder1
      {
        OFFSET 8.99 -0.362252 -0.22
        CHANNELS 3 Zrotation Xrotation Yrotation
        JOINT LeftArm
        {
          OFFSET 10.2827 -0.00338 0.322123
          CHANNELS 3 Zrotation Xrotation Yrotation
          JOINT LeftForeArm
          {
            OFFSET 32.7669 0.099144 -1.42434
            CHANNELS 3 Zrotation Xrotation Yrotation
            JOINT LeftHand
            {
              OFFSET 27.5643 0.085362 1.02216
              CHANNELS 3 Zrotation Xrotation Yrotation
              End Site
              {
                OFFSET 16.7443 -0.6 1.50291
              }
            }
          }
        }
      }
      JOINT RightShoulder
      {
        OFFSET -8.99 -0.362252 -0.22
        CHANNELS 3 Zrotation Xrotation Yrotation
        JOINT RightArm
        {
          OFFSET -10.2827 -0.00338 0.322123
          CHANNELS 3 Zrotation Xrotation Yrotation
          JOINT RightForeArm
          {
            OFFSET -32.8971 0.099144 -1.42434
            CHANNELS 3 Zrotation Xrotation Yrotation
            JOINT RightHand
            {
              OFFSET -27.4921 0.085362 1.02216
              CHANNELS 3 Zrotation Xrotation Yrotation
              End Site
              {
                OFFSET -16.6312 -0.6 1.50291
              }
            }
          }
        }
      }
    }
  }
  JOINT LeftUpLeg
  {
    OFFSET 8.9458 -8.66707 0.101652
    CHANNELS 3 Zrotation Xrotation Yrotation
    JOINT LeftLeg
    {
      OFFSET 7.10543e-014 -44.4227 1.3727
      CHANNELS 3 Zrotation Xrotation Yrotation
      JOINT LeftFoot
      {
        OFFSET -0.253549 -42.0924 -1.46059
        CHANNELS 3 Zrotation Xrotation Yrotation
        JOINT LeftToes
        {
          OFFSET -0.04 -4.41509 8.4991
          CHANNELS 3 Zrotation Xrotation Yrotation
          End Site
          {
            OFFSET 0.08 -0.047448 9.77979
          }
        }
      }
    }
  }
}
MOTION
Frames:	18
Frame Time:	0.0166667
5.44379 97.32 -64.8681 2.90941 -4.69644 57.795 -13.0969 -20.8061 0.273195 0.229989 25.5547 -2.22411 3.20285 3.86283 -0.418062 -0.454251 -3.06924 1.93222 -0.443893 5.54223 -1.80748 -3.34997 10.9534 -3.28516 4.80042 -4.19489 -16.7021 -5.03302e-021 -3.88251e-019 1.21329e-020 -69.5627 -1.78659 -44.7368 -13.2675 37.7277 -113.182 6.54677 9.62745 -1.04006 24.0802 -3.41824 -15.458 61.3397 -28.6738 44.7563 -19.673 20.302 133.016 2.86711 9.09135 -30.004 10.0928 -1.78802 -4.43123 -5.87855 22.3035 3.59189 -4.32193 15.9607 0.775601 30.5755 -54.1963 9.19124 
5.64558 97.1708 -63.7953 3.18446 -4.50858 59.1419 -13.7452 -20.2156 0.243404 -1.53102 22.2298 1.14189 5.42809 3.6866 -0.634641 0.765079 1.57335 1.7168 -0.668283 5.54255 -1.81439 -3.39798 10.9827 -3.25528 4.9443 -4.37611 -17.422 -5.03302e-021 -3.88251e-019 1.21329e-020 -69.3184 -1.59222 -44.7755 -13.2411 37.6059 -113.075 6.54677 9.62745 -1.04006 23.6203 -3.23371 -14.9707 62.8103 -31.0171 47.1633 -20.9811 18.6024 134.189 4.69819 8.59768 -31.6332 10.3273 -1.644 -5.07385 -5.77527 22.4607 2.93833 -4.49327 16.3628 0.824087 31.4119 -54.9497 9.77559 
5.83489 96.9976 -62.6291 3.51042 -4.31141 60.5716 -14.5114 -19.593 0.283236 -2.78218 19.3545 4.04049 7.47457 3.76663 -0.842228 1.83878 5.73278 1.25197 -0.889484 5.54384 -1.8275 -3.47495 11.0174 -3.22789 5.11787 -4.5169 -18.1278 -5.03302e-021 -3.88251e-019 1.21329e-020 -69.0061 -1.47666 -44.7186 -13.245 37.5398 -112.993 6.54677 9.62745 -1.04006 23.1314 -3.03156 -14.4099 64.0543 -33.15 49.3463 -22.4913 16.6229 135.108 6.71336 7.9949 -33.338 10.5898 -1.46958 -5.83228 -5.64231 22.5913 2.2801 -4.76446 16.9333 0.900965 32.5012 -55.8976 10.5404 
6.017 96.7959 -61.3611 3.88041 -4.08632 62.083 -15.3722 -19.012 0.435328 -3.57652 17.1342 6.56238 9.22437 4.18595 -1.0481 2.67732 8.99497 0.634108 -1.10663 5.5433 -1.84122 -3.58157 11.0494 -3.19764 5.3121 -4.61753 -18.8479 -5.03302e-021 -3.88251e-019 1.21329e-020 -68.6486 -1.43015 -44.5809 -13.2775 37.5236 -112.927 6.54677 9.62745 -1.04006 22.6386 -2.83422 -13.8484 65.0045 -35.0541 51.304 -24.1983 14.4612 135.737 8.8054 7.29871 -35.1041 10.8737 -1.27925 -6.66869 -5.46113 22.7066 1.55613 -5.17389 17.6249 1.01556 33.7972 -56.9777 11.4558 
6.20161 96.5652 -59.9803 4.27229 -3.83212 63.6576 -16.2549 -18.5223 0.725257 -3.99971 15.7319 8.81575 10.6095 4.95146 -1.25748 3.13666 10.8774 -0.0186424 -1.26928 5.54475 -1.83262 -3.70767 11.072 -3.14944 5.5108 -4.68132 -19.6268 -5.03302e-021 -3.88251e-019 1.21329e-020 -68.2626 -1.41633 -44.3871 -13.3207 37.5295 -112.871 6.54677 9.62745 -1.04006 22.16 -2.66073 -13.3563 65.655 -36.7737 53.0664 -26.0637 12.2997 136.054 10.8636 6.53617 -36.8923 11.1956 -1.08081 -7.53295 -5.21307 22.814 0.706697 -5.75559 18.3473 1.17545 35.1906 -58.0958 12.4367 
6.38904 96.3185 -58.5062 4.67448 -3.54699 65.312 -17.1103 -18.0634 1.15273 -4.12889 15.1218 10.7747 11.6403 6.0072 -1.47139 3.06489 10.9666 -0.608636 -1.37591 5.54463 -1.80682 -3.84717 11.0789 -3.06829 5.70301 -4.71803 -20.5056 -5.03302e-021 -3.88251e-019 1.21329e-020 -67.849 -1.38794 -44.1678 -13.349 37.519 -112.825 6.54677 9.62745 -1.04006 21.7117 -2.52402 -12.9857 66.0688 -38.3933 54.6842 -28.0204 10.3555 136.063 12.7964 5.7424 -38.6399 11.556 -0.877446 -8.37025 -4.87914 22.877 -0.346893 -6.50296 19.0422 1.37996 36.5384 -59.1572 13.3643 
6.58183 96.0604 -56.9432 5.07015 -3.23901 67.0547 -17.8833 -17.5999 1.7036 -4.00144 15.3163 12.2638 12.3158 7.0954 -1.66175 2.38885 9.10732 -1.09839 -1.42641 5.54457 -1.75818 -3.99333 11.0723 -2.94651 5.89008 -4.74771 -21.5046 -5.03302e-021 -3.88251e-019 1.21329e-020 -67.3929 -1.30454 -43.9551 -13.3401 37.4598 -112.793 6.54677 9.62745 -1.04006 21.313 -2.43142 -12.7677 66.3572 -39.9968 56.214 -29.9839 8.82227 135.8 14.5252 4.96203 -40.2702 11.9675 -0.685968 -9.1352 -4.43968 22.8959 -1.65717 -7.39996 19.6471 1.62418 37.7125 -60.0996 14.1268 
6.7799 95.7975 -55.3026 5.43952 -2.92216 68.9008 -18.5403 -17.0911 2.32877 -3.60117 16.2454 13.0023 12.5764 7.89635 -1.77776 1.17421 5.52421 -1.5065 -1.42558 5.54674 -1.68831 -4.14057 11.0586 -2.78837 6.07687 -4.79917 -22.6163 -5.03302e-021 -3.88251e-019 1.21329e-020 -66.8804 -1.14508 -43.7742 -13.2845 37.339 -112.778 6.54677 9.62745 -1.04006 20.9817 -2.38448 -12.71 66.6461 -41.6396 57.7055 -31.8703 7.82725 135.312 15.9663 4.25163 -41.7096 12.4395 -0.532976 -9.79415 -3.87219 22.8667 -3.24726 -8.40469 20.1568 1.89794 38.6436 -60.909 14.6575 
6.98042 95.5391 -53.6059 5.75733 -2.61298 70.8614 -19.0671 -16.5046 2.92327 -2.88539 17.7242 12.7747 12.312 8.17066 -1.76912 -0.391215 0.793352 -1.87218 -1.37187 5.55107 -1.60451 -4.27596 11.0415 -2.60777 6.25627 -4.90083 -23.8114 -5.03302e-021 -3.88251e-019 1.21329e-020 -66.3201 -0.908483 -43.6343 -13.1884 37.1676 -112.783 6.54677 9.62745 -1.04006 20.7241 -2.37871 -12.7974 67.0376 -43.3383 59.1928 -33.6171 7.41537 134.633 17.029 3.67405 -42.909 12.9725 -0.456212 -10.3244 -3.15792 22.7809 -5.09449 -9.45043 20.6271 2.18814 39.3293 -61.6119 14.9429 
7.17797 95.2977 -51.8874 5.99169 -2.32678 72.9295 -19.4602 -15.8353 3.32878 -1.84653 19.4787 11.5885 11.4585 7.83463 -1.6193 -2.05909 -4.29375 -2.22417 -1.25404 5.55174 -1.51551 -4.37628 11.014 -2.4204 6.40316 -5.06983 -25.0483 -5.03302e-021 -3.88251e-019 1.21329e-020 -65.7536 -0.603732 -43.5212 -13.0695 36.9749 -112.803 6.54677 9.62745 -1.04006 20.5291 -2.40407 -12.9949 67.5798 -45.0733 60.6885 -35.2019 7.55491 133.766 17.6411 3.2814 -43.8561 13.5551 -0.502331 -10.7102 -2.2958 22.6288 -7.11107 -10.4522 21.1541 2.48115 39.808 -62.2537 15.0033 
7.36462 95.0901 -50.1921 6.10721 -2.0791 75.0668 -19.7171 -15.115 3.37933 -0.564947 21.2207 9.70446 10.0948 6.94007 -1.36162 -3.57617 -8.91537 -2.55231 -1.05254 5.53713 -1.42635 -4.41029 10.9575 -2.23482 6.48265 -5.30993 -26.281 -5.03302e-021 -3.88251e-019 1.21329e-020 -65.2467 -0.238482 -43.3963 -12.948 36.796 -112.837 6.54677 9.62745 -1.04006 20.3717 -2.44654 -13.2534 68.2569 -46.7987 62.1848 -36.6478 8.165 132.679 17.788 3.09465 -44.5727 14.1671 -0.716073 -10.9437 -1.32109 22.4053 -9.12048 -11.316 21.8405 2.7633 40.1222 -62.8751 14.8645 
7.52993 94.935 -48.5697 6.07664 -1.88606 77.1985 -19.8358 -14.4087 2.97723 0.797658 22.7348 7.53577 8.44938 5.62517 -1.06372 -4.73405 -12.4495 -2.7913 -0.753258 5.4938 -1.3354 -4.35036 10.8492 -2.04818 6.46503 -5.61981 -27.46 -5.03302e-021 -3.88251e-019 1.21329e-020 -64.8693 0.185197 -43.2034 -12.8378 36.6572 -112.886 6.54677 9.62745 -1.04006 20.2196 -2.48872 -13.5112 69.0058 -48.4559 63.6595 -38.0118 9.16054 131.3 17.5316 3.09466 -45.1006 14.786 -1.12494 -11.03 -0.320844 22.1248 -10.8451 -11.9448 22.7553 3.01671 40.2988 -63.4871 14.5562 
7.66096 94.8491 -47.0628 5.89641 -1.75566 79.219 -19.8265 -13.796 2.15739 2.06779 23.9193 5.48412 6.81984 4.0886 -0.793745 -5.42687 -14.6646 -2.85483 -0.371089 5.41342 -1.23486 -4.18501 10.6759 -1.84863 6.33673 -6.00573 -28.5314 -5.03302e-021 -3.88251e-019 1.21329e-020 -64.6729 0.664702 -42.8804 -12.7421 36.5661 -112.953 6.54677 9.62745 -1.04006 20.0367 -2.50958 -13.6921 69.7403 -49.9876 65.0842 -39.3609 10.5005 129.53 16.9919 3.23235 -45.4845 15.3865 -1.73038 -10.999 0.561122 21.8482 -11.9241 -12.2291 23.8893 3.20823 40.3423 -64.0388 14.1312 
7.74342 94.8468 -45.699 5.59387 -1.67679 81.0126 -19.7216 -13.3378 1.09434 3.13487 24.7532 3.80112 5.46559 2.57161 -0.592794 -5.68194 -15.7227 -2.70054 0.0439823 5.29972 -1.11571 -3.92695 10.4468 -1.62357 6.1033 -6.48736 -29.4395 -5.03302e-021 -3.88251e-019 1.21329e-020 -64.677 1.18695 -42.3743 -12.6539 36.5102 -113.048 6.54677 9.62745 -1.04006 19.7847 -2.48531 -13.7068 70.3572 -51.346 66.4193 -40.7451 12.2164 127.241 16.2973 3.45333 -45.7552 15.9381 -2.50895 -10.914 1.1373 21.6964 -11.9775 -12.0316 25.1155 3.2767 40.2137 -64.3812 13.6689 
7.76515 94.939 -44.4873 5.2219 -1.61205 82.4843 -19.5734 -13.0511 0.0375599 3.97256 25.2506 2.54562 4.53014 1.29303 -0.467277 -5.61867 -15.9791 -2.35897 0.41572 5.16965 -0.97468 -3.61301 10.1939 -1.3689 5.78744 -7.0892 -30.1356 -5.03302e-021 -3.88251e-019 1.21329e-020 -64.8645 1.72741 -41.6554 -12.5622 36.4627 -113.173 6.54677 9.62745 -1.04006 19.427 -2.39376 -13.4666 70.7084 -52.4912 67.5881 -42.1777 14.4001 124.267 15.5248 3.72635 -45.9125 16.4011 -3.42276 -10.8642 1.20906 21.8365 -10.7164 -11.2015 26.1666 3.13591 39.7722 -64.2506 13.2116 
7.72114 95.1321 -43.4238 4.84245 -1.50828 83.5887 -19.4359 -12.9014 -0.791618 4.60396 25.4303 1.64253 4.02591 0.361592 -0.401342 -5.36116 -15.7239 -1.91132 0.672399 5.048 -0.818504 -3.29376 9.96282 -1.09386 5.42557 -7.82164 -30.5893 -5.03302e-021 -3.88251e-019 1.21329e-020 -65.1901 2.26156 -40.7258 -12.4584 36.3943 -113.322 6.54677 9.62745 -1.04006 18.9376 -2.22186 -12.9074 68.6462 -52.6804 67.0483 -43.4795 16.1654 119.326 14.8054 4.00359 -45.9218 16.7321 -4.42513 -10.9329 0.612925 22.4164 -8.06796 -9.65941 26.6733 2.71882 38.7439 -63.318 12.6746 
7.6167 95.4198 -42.4991 4.50855 -1.32018 84.3418 -19.3449 -12.8251 -1.28068 5.05537 25.3303 0.98009 3.87502 -0.276246 -0.373443 -4.97608 -15.039 -1.44952 0.776187 4.95715 -0.661657 -3.01717 9.7942 -0.818875 5.06362 -8.66276 -30.798 -5.03302e-021 -3.88251e-019 1.21329e-020 -65.5941 2.78044 -39.6203 -12.344 36.2857 -113.47 6.54677 9.62745 -1.04006 18.3092 -1.97193 -12.0117 58.4351 -49.2202 60.8267 -44.037 14.4303 108.458 14.4873 4.16995 -45.6382 16.8965 -5.45887 -11.1458 -0.723273 23.4842 -4.25928 -7.53318 26.2888 2.05642 36.8427 -61.3192 11.8704 
7.46567 95.7784 -41.7068 4.25137 -1.03555 84.8102 -19.3082 -12.7616 -1.44037 5.33854 25.0219 0.472695 3.97575 -0.797676 -0.365328 -4.47028 -13.8355 -1.04479 0.743284 4.90919 -0.520651 -2.81354 9.70958 -0.568771 4.75193 -9.55545 -30.7868 -5.03302e-021 -3.88251e-019 1.21329e-020 -66.0189 3.29525 -38.4002 -12.2336 36.1347 -113.579 6.54677 9.62745 -1.04006 17.56 -1.66346 -10.8218 47.6363 -44.12 54.7165 -44.2181 12.5877 95.4069 13.795 4.55446 -44.8167 16.8838 -6.45238 -11.4291 -2.72079 24.9441 0.194423 -5.20539 24.891 1.31032 34.0583 -58.2374 10.707 
